<svg width="75" height="28" viewBox="0 0 75 28" fill="none" xmlns="http://www.w3.org/2000/svg">
<path d="M0 14C0 6.26801 6.26801 0 14 0H61C68.732 0 75 6.26801 75 14C75 21.732 68.732 28 61 28H14C6.26801 28 0 21.732 0 14Z" fill="#34616F" fill-opacity="0.09"/>
<circle cx="11" cy="14" r="3" fill="#087A2E"/>
<path d="M23.0093 19L26.9243 8.155H28.6943L32.6018 19H30.9818L29.9618 16.1575H25.6643L24.6368 19H23.0093ZM26.0618 14.7025H29.5418L27.8018 9.715L26.0618 14.7025ZM37.2394 19.15C36.5394 19.15 35.9169 18.9975 35.3719 18.6925C34.8269 18.3825 34.3994 17.93 34.0894 17.335C33.7794 16.735 33.6244 16.0075 33.6244 15.1525C33.6244 14.3475 33.7669 13.64 34.0519 13.03C34.3419 12.42 34.7569 11.945 35.2969 11.605C35.8369 11.265 36.4844 11.095 37.2394 11.095C37.8244 11.095 38.3419 11.21 38.7919 11.44C39.2419 11.665 39.6069 11.98 39.8869 12.385C40.1719 12.79 40.3444 13.2625 40.4044 13.8025H39.0094C38.9694 13.5475 38.8744 13.31 38.7244 13.09C38.5744 12.87 38.3769 12.695 38.1319 12.565C37.8869 12.43 37.5944 12.3625 37.2544 12.3625C36.6294 12.3625 36.1219 12.59 35.7319 13.045C35.3419 13.5 35.1469 14.1975 35.1469 15.1375C35.1469 15.9975 35.3294 16.6825 35.6944 17.1925C36.0594 17.7025 36.5869 17.9575 37.2769 17.9575C37.6169 17.9575 37.9094 17.8875 38.1544 17.7475C38.3994 17.6075 38.5944 17.4275 38.7394 17.2075C38.8894 16.9875 38.9844 16.76 39.0244 16.525H40.3894C40.3294 17.045 40.1569 17.5025 39.8719 17.8975C39.5919 18.2925 39.2269 18.6 38.7769 18.82C38.3269 19.04 37.8144 19.15 37.2394 19.15ZM44.8809 19.0525C44.3059 19.0525 43.8609 18.975 43.5459 18.82C43.2309 18.665 43.0109 18.4425 42.8859 18.1525C42.7609 17.8575 42.6984 17.5025 42.6984 17.0875V12.4H41.4384V11.245H42.7509L43.1409 8.965H44.3109V11.2375H46.0509V12.4H44.3109L44.3184 17.0275C44.3184 17.2825 44.3434 17.47 44.3934 17.59C44.4484 17.705 44.5384 17.78 44.6634 17.815C44.7934 17.845 44.9684 17.86 45.1884 17.86H46.0884V18.9025C45.9934 18.9425 45.8459 18.9775 45.6459 19.0075C45.4509 19.0375 45.1959 19.0525 44.8809 19.0525ZM47.8882 19V11.245H49.4332V19H47.8882ZM47.8507 9.745V8.1625H49.4632V9.745H47.8507ZM53.7071 19L50.8721 11.245H52.3571L54.3221 16.9675H54.4271L56.3921 11.245H57.8771L55.0571 19H53.7071ZM62.4607 19.15C61.7257 19.15 61.0782 18.9925 60.5182 18.6775C59.9582 18.3575 59.5207 17.9025 59.2057 17.3125C58.8957 16.7225 58.7407 16.02 58.7407 15.205C58.7407 14.4 58.8832 13.69 59.1682 13.075C59.4532 12.455 59.8657 11.97 60.4057 11.62C60.9457 11.27 61.5957 11.095 62.3557 11.095C63.1007 11.095 63.7307 11.255 64.2457 11.575C64.7607 11.895 65.1507 12.345 65.4157 12.925C65.6807 13.5 65.8132 14.18 65.8132 14.965V15.4975H60.3532C60.3482 15.9625 60.4232 16.38 60.5782 16.75C60.7332 17.115 60.9632 17.405 61.2682 17.62C61.5782 17.83 61.9632 17.935 62.4232 17.935C62.8882 17.935 63.2882 17.83 63.6232 17.62C63.9632 17.41 64.1857 17.0975 64.2907 16.6825H65.7757C65.6857 17.2125 65.4732 17.6625 65.1382 18.0325C64.8032 18.4025 64.4007 18.6825 63.9307 18.8725C63.4607 19.0575 62.9707 19.15 62.4607 19.15ZM60.3532 14.455H64.2832C64.2832 14.05 64.2132 13.6825 64.0732 13.3525C63.9332 13.0175 63.7182 12.755 63.4282 12.565C63.1432 12.37 62.7832 12.2725 62.3482 12.2725C61.9032 12.2725 61.5332 12.38 61.2382 12.595C60.9432 12.81 60.7207 13.085 60.5707 13.42C60.4257 13.755 60.3532 14.1 60.3532 14.455Z" fill="#1B2528"/>
</svg>
