<svg width="78" height="36" viewBox="0 0 78 36" fill="none" xmlns="http://www.w3.org/2000/svg">
<path d="M0 16C0 7.16344 7.16344 0 16 0H62C70.8366 0 78 7.16344 78 16V20C78 28.8366 70.8366 36 62 36H16C7.16344 36 0 28.8366 0 20V16Z" fill="#4B8B9F"/>
<path d="M23.1525 23.15C22.6225 23.15 22.1125 23.085 21.6225 22.955C21.1375 22.825 20.695 22.6325 20.295 22.3775C19.9 22.1175 19.5725 21.795 19.3125 21.41C19.0575 21.025 18.8975 20.575 18.8325 20.06H20.505C20.59 20.45 20.7575 20.7775 21.0075 21.0425C21.2625 21.3075 21.58 21.5075 21.96 21.6425C22.345 21.7775 22.77 21.845 23.235 21.845C23.665 21.845 24.0625 21.7775 24.4275 21.6425C24.7925 21.5075 25.0875 21.3125 25.3125 21.0575C25.5375 20.8025 25.65 20.49 25.65 20.12C25.65 19.705 25.51 19.3775 25.23 19.1375C24.955 18.8925 24.54 18.6975 23.985 18.5525L21.81 18.0125C21.285 17.8875 20.8225 17.71 20.4225 17.48C20.0225 17.245 19.7125 16.9375 19.4925 16.5575C19.2725 16.1725 19.1625 15.6975 19.1625 15.1325C19.1625 14.5025 19.335 13.955 19.68 13.49C20.03 13.02 20.5025 12.6575 21.0975 12.4025C21.6975 12.1475 22.375 12.02 23.13 12.02C23.995 12.02 24.7225 12.1675 25.3125 12.4625C25.9075 12.7575 26.3575 13.1475 26.6625 13.6325C26.9725 14.1125 27.13 14.635 27.135 15.2H25.5C25.455 14.74 25.3175 14.375 25.0875 14.105C24.8625 13.83 24.575 13.6325 24.225 13.5125C23.88 13.3925 23.4975 13.3325 23.0775 13.3325C22.3375 13.3325 21.78 13.4975 21.405 13.8275C21.035 14.1525 20.85 14.54 20.85 14.99C20.85 15.405 20.985 15.7325 21.255 15.9725C21.53 16.2125 21.935 16.3975 22.47 16.5275L24.57 17.045C25.23 17.19 25.7575 17.4075 26.1525 17.6975C26.5525 17.9825 26.84 18.32 27.015 18.71C27.19 19.095 27.2775 19.5175 27.2775 19.9775C27.2775 20.5925 27.105 21.14 26.76 21.62C26.415 22.095 25.9325 22.47 25.3125 22.745C24.6975 23.015 23.9775 23.15 23.1525 23.15ZM29.2242 23V11.855H30.8067V16.3775C30.9317 16.1725 31.0992 15.9775 31.3092 15.7925C31.5242 15.6075 31.7842 15.4575 32.0892 15.3425C32.3992 15.2225 32.7592 15.1625 33.1692 15.1625C33.6742 15.1625 34.1292 15.2575 34.5342 15.4475C34.9442 15.6325 35.2692 15.9025 35.5092 16.2575C35.7542 16.6075 35.8767 17.025 35.8767 17.51V23H34.2717V17.8025C34.2717 17.3675 34.1217 17.0325 33.8217 16.7975C33.5217 16.5625 33.1367 16.445 32.6667 16.445C32.3517 16.445 32.0517 16.5 31.7667 16.61C31.4867 16.715 31.2592 16.875 31.0842 17.09C30.9142 17.3 30.8292 17.565 30.8292 17.885V23H29.2242ZM40.1232 23.15C39.6232 23.15 39.1782 23.06 38.7882 22.88C38.4032 22.7 38.1007 22.44 37.8807 22.1C37.6607 21.76 37.5507 21.35 37.5507 20.87C37.5507 20.01 37.8532 19.3675 38.4582 18.9425C39.0682 18.5175 40.0432 18.2925 41.3832 18.2675L42.6582 18.23V17.6675C42.6582 17.2225 42.5257 16.8725 42.2607 16.6175C41.9957 16.3625 41.5857 16.2375 41.0307 16.2425C40.6207 16.2425 40.2532 16.3375 39.9282 16.5275C39.6032 16.7175 39.3907 17.03 39.2907 17.465H37.9032C37.9332 16.95 38.0807 16.5175 38.3457 16.1675C38.6157 15.8125 38.9857 15.545 39.4557 15.365C39.9257 15.185 40.4757 15.095 41.1057 15.095C41.8157 15.095 42.3982 15.1925 42.8532 15.3875C43.3082 15.5775 43.6457 15.8575 43.8657 16.2275C44.0907 16.5975 44.2032 17.0475 44.2032 17.5775V23H42.8382L42.7182 21.575C42.4282 22.17 42.0607 22.5825 41.6157 22.8125C41.1707 23.0375 40.6732 23.15 40.1232 23.15ZM40.6257 22.0325C40.8707 22.0325 41.1132 21.99 41.3532 21.905C41.5932 21.815 41.8107 21.695 42.0057 21.545C42.2007 21.39 42.3557 21.2175 42.4707 21.0275C42.5907 20.8375 42.6532 20.6425 42.6582 20.4425V19.16L41.6082 19.1825C41.0732 19.1875 40.6182 19.2425 40.2432 19.3475C39.8732 19.4525 39.5882 19.615 39.3882 19.835C39.1932 20.055 39.0957 20.3475 39.0957 20.7125C39.0957 21.1275 39.2382 21.4525 39.5232 21.6875C39.8132 21.9175 40.1807 22.0325 40.6257 22.0325ZM46.2604 23V15.245H47.7979V16.835C47.9279 16.455 48.1079 16.1375 48.3379 15.8825C48.5729 15.6225 48.8454 15.4275 49.1554 15.2975C49.4654 15.1625 49.7929 15.095 50.1379 15.095C50.2429 15.095 50.3429 15.1025 50.4379 15.1175C50.5329 15.1275 50.6079 15.1475 50.6629 15.1775V16.7225C50.5979 16.6925 50.5129 16.6725 50.4079 16.6625C50.3079 16.6525 50.2204 16.645 50.1454 16.64C49.8054 16.615 49.4954 16.6325 49.2154 16.6925C48.9354 16.7525 48.6929 16.8525 48.4879 16.9925C48.2879 17.1325 48.1329 17.315 48.0229 17.54C47.9179 17.765 47.8654 18.03 47.8654 18.335V23H46.2604ZM55.4797 23.15C54.7447 23.15 54.0972 22.9925 53.5372 22.6775C52.9772 22.3575 52.5397 21.9025 52.2247 21.3125C51.9147 20.7225 51.7597 20.02 51.7597 19.205C51.7597 18.4 51.9022 17.69 52.1872 17.075C52.4722 16.455 52.8847 15.97 53.4247 15.62C53.9647 15.27 54.6147 15.095 55.3747 15.095C56.1197 15.095 56.7497 15.255 57.2647 15.575C57.7797 15.895 58.1697 16.345 58.4347 16.925C58.6997 17.5 58.8322 18.18 58.8322 18.965V19.4975H53.3722C53.3672 19.9625 53.4422 20.38 53.5972 20.75C53.7522 21.115 53.9822 21.405 54.2872 21.62C54.5972 21.83 54.9822 21.935 55.4422 21.935C55.9072 21.935 56.3072 21.83 56.6422 21.62C56.9822 21.41 57.2047 21.0975 57.3097 20.6825H58.7947C58.7047 21.2125 58.4922 21.6625 58.1572 22.0325C57.8222 22.4025 57.4197 22.6825 56.9497 22.8725C56.4797 23.0575 55.9897 23.15 55.4797 23.15ZM53.3722 18.455H57.3022C57.3022 18.05 57.2322 17.6825 57.0922 17.3525C56.9522 17.0175 56.7372 16.755 56.4472 16.565C56.1622 16.37 55.8022 16.2725 55.3672 16.2725C54.9222 16.2725 54.5522 16.38 54.2572 16.595C53.9622 16.81 53.7397 17.085 53.5897 17.42C53.4447 17.755 53.3722 18.1 53.3722 18.455Z" fill="#020303"/>
</svg>
